<?xml version="1.0" standalone="no"?>
<!DOCTYPE svg PUBLIC "-//W3C//DTD SVG 20010904//EN"
 "http://www.w3.org/TR/2001/REC-SVG-20010904/DTD/svg10.dtd">
<svg version="1.0" xmlns="http://www.w3.org/2000/svg"
 width="700.000000pt" height="700.000000pt" viewBox="0 0 700.000000 700.000000"
 preserveAspectRatio="xMidYMid meet">
<metadata>
Created by potrace 1.14, written by Peter Selinger 2001-2017
</metadata>
<g transform="translate(0.000000,700.000000) scale(0.100000,-0.100000)"
fill="#000000" stroke="none">
<path d="M4285 6541 c-70 -31 -100 -77 -144 -218 -22 -71 -420 -1365 -885
-2877 -578 -1877 -846 -2762 -846 -2793 0 -196 247 -288 377 -140 24 27 43 71
72 164 22 71 420 1365 885 2877 611 1986 846 2761 846 2795 -1 153 -165 256
-305 192z"/>
<path d="M1899 5236 c-20 -7 -49 -22 -65 -34 -16 -11 -376 -369 -801 -794
-821 -822 -813 -813 -813 -908 0 -95 -8 -86 818 -913 427 -428 795 -789 818
-803 91 -54 191 -41 265 35 69 72 84 159 42 246 -8 17 -331 346 -716 733
l-702 702 702 703 c385 386 708 716 716 732 43 87 28 173 -42 245 -64 67 -140
86 -222 56z"/>
<path d="M4955 5236 c-57 -21 -120 -94 -135 -155 -12 -53 -7 -96 17 -146 8
-16 331 -346 716 -732 l702 -703 -702 -702 c-385 -387 -708 -716 -716 -733
-43 -87 -28 -173 42 -245 74 -77 174 -90 265 -36 23 14 391 375 818 803 826
827 818 818 818 913 0 95 8 86 -818 913 -427 428 -796 790 -819 803 -53 32
-133 40 -188 20z"/>
</g>
</svg>
